<mxfile host="app.diagrams.net" modified="2023-09-07T01:27:16.466Z" agent="Mozilla/5.0 (Windows NT 10.0; Win64; x64) AppleWebKit/537.36 (KHTML, like Gecko) Chrome/116.0.0.0 Safari/537.36 Edg/116.0.1938.69" version="21.6.8" etag="njJEwRbQVm-pIS4yeXFx" type="github">
  <diagram name="第 1 页" id="-yWtAhsGNF6YY7Y9oRBQ">
    <mxGraphModel>
      <root>
        <mxCell id="0" />
        <mxCell id="1" parent="0" />
      </root>
    </mxGraphModel>
  </diagram>
</mxfile>
